<svg height="512pt" viewBox="0 0 512 512" width="512pt" xmlns="http://www.w3.org/2000/svg"><path d="m419 446c-3 3.898438-7.199219 6-12 6h-302c-4.800781 0-9-2.101562-12-6-2.699219-3.601562-3.601562-8.699219-2.398438-13.199219l28.796876-101.800781s37.199218-16.199219 69-30h164l40.203124 30 28.796876 101.800781c1.203124 4.5.300781 9.597657-2.398438 13.199219zm0 0" fill="#ffcebf"/><path d="m407 452h-151v-151h96.398438l40.203124 30 28.796876 101.800781c1.203124 4.5.300781 9.597657-2.398438 13.199219-3 3.898438-7.199219 6-12 6zm0 0" fill="#ffa78f"/><path d="m392.601562 331h-273.203124l25.800781-90 52.5-30h128l41.101562 30zm0 0" fill="#ff9f00"/><path d="m392.601562 331h-136.601562v-120h69.699219l41.101562 30zm0 0" fill="#ff7816"/><path d="m366.800781 241h-221.601562l25.800781-90 40.199219-30h65.601562l64.199219 30zm0 0" fill="#ffcebf"/><path d="m366.800781 241h-110.800781v-120h20.800781l64.199219 30zm0 0" fill="#ffa78f"/><path d="m301.398438 10.800781c-1.800782-6.300781-7.800782-10.800781-14.398438-10.800781h-62c-6.597656 0-12.597656 4.5-14.398438 10.800781l-39.601562 140.199219h170zm0 0" fill="#ff9f00"/><path d="m341 151h-85v-151h31c6.597656 0 12.597656 4.5 14.398438 10.800781zm0 0" fill="#ff7816"/><path d="m481.699219 493.398438h-451.398438c2.097657-39.597657 34.5-71.398438 74.699219-71.398438h302c40.199219 0 72.597656 31.800781 74.699219 71.398438zm0 0" fill="#ff9f00"/><path d="m481.699219 493.398438h-225.699219v-71.398438h151c40.199219 0 72.597656 31.800781 74.699219 71.398438zm0 0" fill="#ff7816"/><path d="m512 497c0 8.398438-6.597656 15-15 15h-482c-8.402344 0-15-6.601562-15-15 0-8.402344 6.597656-15 15-15h482c8.402344 0 15 6.597656 15 15zm0 0" fill="#ff7816"/><path d="m512 497c0 8.398438-6.597656 15-15 15h-241v-30h241c8.402344 0 15 6.597656 15 15zm0 0" fill="#ff4b00"/></svg>